<svg width="144" height="144" viewBox="0 0 144 144" fill="none" xmlns="http://www.w3.org/2000/svg">
<g clip-path="url(#clip0_883_685)">
<path fill-rule="evenodd" clip-rule="evenodd" d="M51.4193 0.000460329C46.5438 0.000460329 41.545 1.57417 37.6055 4.82446C33.6044 8.11589 30.8375 13.053 30.8375 18.7513V34.6222H15.4295C7.09812 34.6222 0.000976562 41.1433 0.000976562 49.6393V128.675C0.000976562 137.16 7.09812 143.692 15.4295 143.692H128.572C136.904 143.692 144.001 137.16 144.001 128.675V49.6393C144.001 41.1536 136.904 34.6222 128.572 34.6222H113.164V18.7513C113.164 13.0633 110.398 8.11589 106.396 4.82446C102.486 1.67199 97.6057 -0.032181 92.5827 0.000460329H51.4193ZM92.593 34.6222V20.5719H51.409V34.6222H92.593ZM45.001 89.157C45.001 85.6085 47.881 82.7285 51.4295 82.7285H65.5724V68.5856C65.5724 66.8806 66.2497 65.2455 67.4553 64.0399C68.6609 62.8343 70.296 62.157 72.001 62.157C73.7059 62.157 75.3411 62.8343 76.5467 64.0399C77.7523 65.2455 78.4296 66.8806 78.4296 68.5856V82.7285H92.5724C94.2774 82.7285 95.9125 83.4058 97.1181 84.6113C98.3237 85.8169 99.001 87.4521 99.001 89.157C99.001 90.862 98.3237 92.4971 97.1181 93.7027C95.9125 94.9083 94.2774 95.5856 92.5724 95.5856H78.4296V109.728C78.4296 111.433 77.7523 113.069 76.5467 114.274C75.3411 115.48 73.7059 116.157 72.001 116.157C70.296 116.157 68.6609 115.48 67.4553 114.274C66.2497 113.069 65.5724 111.433 65.5724 109.728V95.5856H51.4295C49.7246 95.5856 48.0895 94.9083 46.8839 93.7027C45.6783 92.4971 45.001 90.862 45.001 89.157Z" fill="#1F2F33"/>
</g>
<defs>
<clipPath id="clip0_883_685">
<rect width="144" height="144" fill="white" transform="translate(0.000976562)"/>
</clipPath>
</defs>
</svg>
