<svg width="208" height="184" viewBox="0 0 208 184" fill="none" xmlns="http://www.w3.org/2000/svg">
<g clip-path="url(#clip0_883_696)">
<path d="M190.25 11.5H17.75C8.22656 11.5 0.5 19.2266 0.5 28.75V155.25C0.5 164.773 8.22656 172.5 17.75 172.5H190.25C199.773 172.5 207.5 164.773 207.5 155.25V28.75C207.5 19.2266 199.773 11.5 190.25 11.5ZM190.25 155.25H109.463C109.786 153.633 109.75 156.544 109.75 147.2C109.75 135.772 98.9328 126.5 85.6 126.5C81.7188 126.5 78.8797 129.375 69.5 129.375C59.8328 129.375 57.4969 126.5 53.4 126.5C40.0672 126.5 29.25 135.772 29.25 147.2C29.25 156.544 29.1781 153.633 29.5375 155.25H17.75V28.75H190.25V155.25ZM69.5 115C82.1859 115 92.5 104.686 92.5 92C92.5 79.3141 82.1859 69 69.5 69C56.8141 69 46.5 79.3141 46.5 92C46.5 104.686 56.8141 115 69.5 115Z" fill="#699CA7"/>
<path d="M168.553 70.2578L130.504 113.742L114.197 97.4355" stroke="#2C5234" stroke-width="6" stroke-linecap="round" stroke-linejoin="round"/>
</g>
<defs>
<clipPath id="clip0_883_696">
<rect width="207" height="184" fill="white" transform="translate(0.5)"/>
</clipPath>
</defs>
</svg>
