<svg width="208" height="184" viewBox="0 0 208 184" fill="none" xmlns="http://www.w3.org/2000/svg">
<g clip-path="url(#clip0_883_788)">
<path d="M190.25 11.5H17.75C8.22656 11.5 0.5 19.2266 0.5 28.75V155.25C0.5 164.773 8.22656 172.5 17.75 172.5H190.25C199.773 172.5 207.5 164.773 207.5 155.25V28.75C207.5 19.2266 199.773 11.5 190.25 11.5ZM190.25 155.25H109.463C109.786 153.633 109.75 156.544 109.75 147.2C109.75 135.772 98.9328 126.5 85.6 126.5C81.7188 126.5 78.8797 129.375 69.5 129.375C59.8328 129.375 57.4969 126.5 53.4 126.5C40.0672 126.5 29.25 135.772 29.25 147.2C29.25 156.544 29.1781 153.633 29.5375 155.25H17.75V28.75H190.25V155.25ZM69.5 115C82.1859 115 92.5 104.686 92.5 92C92.5 79.3141 82.1859 69 69.5 69C56.8141 69 46.5 79.3141 46.5 92C46.5 104.686 56.8141 115 69.5 115Z" fill="#699CA7"/>
<path d="M165.784 111.93C166.007 112.153 166.184 112.418 166.305 112.71C166.426 113.002 166.488 113.314 166.488 113.63C166.488 113.946 166.426 114.259 166.305 114.55C166.184 114.842 166.007 115.107 165.784 115.331C165.56 115.554 165.295 115.731 165.004 115.852C164.712 115.973 164.399 116.035 164.083 116.035C163.768 116.035 163.455 115.973 163.163 115.852C162.871 115.731 162.606 115.554 162.383 115.331L142.453 95.3981L122.524 115.331C122.073 115.782 121.461 116.035 120.824 116.035C120.186 116.035 119.574 115.782 119.123 115.331C118.672 114.88 118.419 114.268 118.419 113.63C118.419 112.992 118.672 112.381 119.123 111.93L139.056 92.0004L119.123 72.0708C118.672 71.6199 118.419 71.0082 118.419 70.3705C118.419 69.7327 118.672 69.1211 119.123 68.6701C119.574 68.2192 120.186 67.9658 120.824 67.9658C121.461 67.9658 122.073 68.2192 122.524 68.6701L142.453 88.6027L162.383 68.6701C162.834 68.2192 163.446 67.9658 164.083 67.9658C164.721 67.9658 165.333 68.2192 165.784 68.6701C166.235 69.1211 166.488 69.7327 166.488 70.3705C166.488 71.0082 166.235 71.6199 165.784 72.0708L145.851 92.0004L165.784 111.93Z" fill="#BD4E07"/>
</g>
<defs>
<clipPath id="clip0_883_788">
<rect width="207" height="184" fill="white" transform="translate(0.5)"/>
</clipPath>
</defs>
</svg>
