<svg width="144" height="145" viewBox="0 0 144 145" fill="none" xmlns="http://www.w3.org/2000/svg">
<path d="M83.653 136.986C101.222 121.822 132.48 90.8425 132.48 62.4133C132.48 46.6834 126.109 31.5977 114.766 20.475C103.424 9.35221 88.0408 3.10352 72.0005 3.10352C55.9602 3.10352 40.5769 9.35221 29.2347 20.475C17.8925 31.5977 11.5205 46.6834 11.5205 62.4133C11.5205 90.8425 42.7685 121.822 60.348 136.986C63.5546 139.792 67.7024 141.344 72.0005 141.344C76.2986 141.344 80.4464 139.792 83.653 136.986ZM51.8405 62.4133C51.8405 57.17 53.9645 52.1414 57.7452 48.4339C61.526 44.7263 66.6537 42.6434 72.0005 42.6434C77.3473 42.6434 82.475 44.7263 86.2558 48.4339C90.0365 52.1414 92.1605 57.17 92.1605 62.4133C92.1605 67.6566 90.0365 72.6852 86.2558 76.3928C82.475 80.1003 77.3473 82.1833 72.0005 82.1833C66.6537 82.1833 61.526 80.1003 57.7452 76.3928C53.9645 72.6852 51.8405 67.6566 51.8405 62.4133Z" fill="#1F2F33"/>
</svg>
