<svg width="25" height="26" viewBox="0 0 25 26" fill="none" xmlns="http://www.w3.org/2000/svg">
<path d="M14.523 24.2434C17.5732 21.6108 23 16.2325 23 11.2968C23 8.56595 21.8938 5.94691 19.9246 4.01587C17.9555 2.08484 15.2848 1 12.5 1C9.71523 1 7.04451 2.08484 5.07538 4.01587C3.10625 5.94691 2 8.56595 2 11.2968C2 16.2325 7.425 21.6108 10.477 24.2434C11.0337 24.7307 11.7538 25 12.5 25C13.2462 25 13.9663 24.7307 14.523 24.2434ZM9 11.2968C9 10.3865 9.36875 9.51353 10.0251 8.86985C10.6815 8.22618 11.5717 7.86456 12.5 7.86456C13.4283 7.86456 14.3185 8.22618 14.9749 8.86985C15.6313 9.51353 16 10.3865 16 11.2968C16 12.2071 15.6313 13.0802 14.9749 13.7238C14.3185 14.3675 13.4283 14.7291 12.5 14.7291C11.5717 14.7291 10.6815 14.3675 10.0251 13.7238C9.36875 13.0802 9 12.2071 9 11.2968Z" fill="#314A4F"/>
</svg>
