<svg width="145" height="144" viewBox="0 0 145 144" fill="none" xmlns="http://www.w3.org/2000/svg">
<path fill-rule="evenodd" clip-rule="evenodd" d="M43.9758 100.326C42.1658 101.435 40.806 103.148 40.1365 105.162C39.467 107.176 39.5309 109.362 40.317 111.334C41.1031 113.305 42.5607 114.936 44.4324 115.937C46.3041 116.938 48.4693 117.245 50.5456 116.804C52.622 116.364 54.4757 115.203 55.7794 113.528C57.0831 111.853 57.7528 109.771 57.6703 107.65C57.5877 105.53 56.7582 103.506 55.3283 101.937C53.8984 100.369 51.96 99.356 49.8558 99.078C49.7434 98.6754 49.6403 98.2703 49.5468 97.863C49.1382 96.0092 48.8178 94.1371 48.5868 92.253C48.3387 90.3484 48.1985 88.4314 48.1668 86.511C48.1619 85.9836 48.1769 85.4562 48.2118 84.93C49.3658 84.598 50.5208 84.301 51.6768 84.039C52.9998 83.739 53.7858 85.299 54.4188 86.565L54.6768 87.072H89.9238C90.6108 85.77 92.1678 83.694 93.6768 84.039C95.2888 84.407 96.8978 84.84 98.5038 85.338L98.4948 85.341C98.4888 85.335 98.4888 85.337 98.4948 85.347C98.5068 85.389 98.5728 85.587 98.6388 86.007C98.7148 86.495 98.7648 87.12 98.7888 87.882C98.8308 89.394 98.7438 91.233 98.5668 93.087C98.3868 94.938 98.1198 96.729 97.8198 98.142C97.7538 98.456 97.6878 98.742 97.6217 99H93.6768C93.1198 99.0003 92.5739 99.1556 92.1002 99.4487C91.6265 99.7417 91.2437 100.161 90.9948 100.659L87.9948 106.659C87.7861 107.075 87.6773 107.534 87.6768 108V114C87.6768 114.796 87.9928 115.559 88.5554 116.121C89.118 116.684 89.8811 117 90.6768 117H96.6768V111H93.6768V108.708L95.5308 105H103.823L105.677 108.708V111H102.677V117H108.677C109.472 117 110.235 116.684 110.798 116.121C111.361 115.559 111.677 114.796 111.677 114V108C111.676 107.534 111.567 107.075 111.359 106.659L108.359 100.659C108.11 100.161 107.727 99.7417 107.253 99.4487C106.78 99.1556 106.234 99.0003 105.677 99H103.769C104.09 97.401 104.357 95.535 104.537 93.663C104.735 91.641 104.837 89.544 104.786 87.714L104.783 87.63C116.747 92.685 126.677 100.998 126.677 109.71V126H18.6768V109.71C18.6768 100.614 29.5068 91.95 42.1698 86.979C42.2028 88.845 42.3798 90.954 42.6348 92.997C42.9108 95.202 43.2858 97.395 43.6998 99.201C43.7898 99.587 43.8818 99.962 43.9758 100.326ZM48.6768 111.045C50.2908 111.045 51.6768 109.725 51.6768 108C51.6768 106.278 50.2908 104.955 48.6768 104.955C47.0628 104.955 45.6768 106.275 45.6768 108C45.6768 109.722 47.0628 111.045 48.6768 111.045ZM72.6768 72C79.042 72 85.1464 69.4714 89.6473 64.9706C94.1482 60.4697 96.6768 54.3652 96.6768 48C96.6768 41.6348 94.1482 35.5303 89.6473 31.0294C85.1464 26.5286 79.042 24 72.6768 24C66.3116 24 60.2071 26.5286 55.7062 31.0294C51.2053 35.5303 48.6768 41.6348 48.6768 48C48.6768 54.3652 51.2053 60.4697 55.7062 64.9706C60.2071 69.4714 66.3116 72 72.6768 72ZM72.6768 78C89.2458 78 102.677 64.569 102.677 48C102.677 31.431 89.2458 18 72.6768 18C56.1078 18 42.6768 31.431 42.6768 48C42.6768 64.569 56.1078 78 72.6768 78Z" fill="#1F2F33"/>
</svg>
