<svg width="144" height="144" viewBox="0 0 144 144" fill="none" xmlns="http://www.w3.org/2000/svg">
<path d="M54.0098 89.502V93C54.0098 100.161 56.8544 107.028 61.9179 112.092C66.9814 117.155 73.8489 120 81.0098 120C88.1706 120 95.0382 117.155 100.102 112.092C105.165 107.028 108.01 100.161 108.01 93V82.98C104.005 81.5646 100.629 78.7788 98.4796 75.1152C96.33 71.4515 95.5448 67.1459 96.2629 62.9593C96.9809 58.7727 99.156 54.9747 102.404 52.2368C105.651 49.4988 109.762 47.9971 114.01 47.9971C118.257 47.9971 122.368 49.4988 125.616 52.2368C128.864 54.9747 131.039 58.7727 131.757 62.9593C132.475 67.1459 131.69 71.4515 129.54 75.1152C127.39 78.7788 124.015 81.5646 120.01 82.98V93C120.01 103.343 115.901 113.263 108.587 120.577C101.273 127.891 91.3532 132 81.0098 132C70.6663 132 60.7465 127.891 53.4326 120.577C46.1187 113.263 42.0098 103.343 42.0098 93V89.502C33.6213 88.0817 26.0066 83.7373 20.5154 77.2389C15.0241 70.7405 12.0109 62.5078 12.0098 54L12.0098 24C12.0098 20.8174 13.274 17.7652 15.5245 15.5147C17.7749 13.2643 20.8272 12 24.0098 12H30.0098C31.6011 12 33.1272 12.6321 34.2524 13.7574C35.3776 14.8826 36.0098 16.4087 36.0098 18C36.0098 19.5913 35.3776 21.1174 34.2524 22.2426C33.1272 23.3679 31.6011 24 30.0098 24H24.0098V54C24.0098 60.3652 26.5383 66.4697 31.0392 70.9706C35.5401 75.4714 41.6446 78 48.0098 78C54.375 78 60.4795 75.4714 64.9803 70.9706C69.4812 66.4697 72.0098 60.3652 72.0098 54V24H66.0098C64.4185 24 62.8923 23.3679 61.7671 22.2426C60.6419 21.1174 60.0098 19.5913 60.0098 18C60.0098 16.4087 60.6419 14.8826 61.7671 13.7574C62.8923 12.6321 64.4185 12 66.0098 12H72.0098C75.1924 12 78.2446 13.2643 80.495 15.5147C82.7455 17.7652 84.0098 20.8174 84.0098 24V54C84.0087 62.5078 80.9955 70.7405 75.5042 77.2389C70.0129 83.7373 62.3982 88.0817 54.0098 89.502ZM114.01 72C115.601 72 117.127 71.3679 118.252 70.2426C119.378 69.1174 120.01 67.5913 120.01 66C120.01 64.4087 119.378 62.8826 118.252 61.7574C117.127 60.6321 115.601 60 114.01 60C112.418 60 110.892 60.6321 109.767 61.7574C108.642 62.8826 108.01 64.4087 108.01 66C108.01 67.5913 108.642 69.1174 109.767 70.2426C110.892 71.3679 112.418 72 114.01 72Z" fill="#1F2F33"/>
</svg>
