<svg width="25" height="25" viewBox="0 0 25 25" fill="none" xmlns="http://www.w3.org/2000/svg">
<path d="M6.75 3.875C6.75 3.1125 7.0529 2.38123 7.59207 1.84207C8.13124 1.3029 8.8625 1 9.625 1H15.375C16.1375 1 16.8688 1.3029 17.4079 1.84207C17.9471 2.38123 18.25 3.1125 18.25 3.875V6.75H21.125C21.8875 6.75 22.6188 7.0529 23.1579 7.59207C23.6971 8.13124 24 8.8625 24 9.625V15.375C24 16.1375 23.6971 16.8688 23.1579 17.4079C22.6188 17.9471 21.8875 18.25 21.125 18.25H18.25V21.125C18.25 21.8875 17.9471 22.6188 17.4079 23.1579C16.8688 23.6971 16.1375 24 15.375 24H9.625C8.8625 24 8.13124 23.6971 7.59207 23.1579C7.0529 22.6188 6.75 21.8875 6.75 21.125V18.25H3.875C3.1125 18.25 2.38123 17.9471 1.84207 17.4079C1.3029 16.8688 1 16.1375 1 15.375V9.625C1 8.8625 1.3029 8.13124 1.84207 7.59207C2.38123 7.0529 3.1125 6.75 3.875 6.75H6.75V3.875ZM15.375 3.875H9.625V8.1875C9.625 8.56875 9.47355 8.93438 9.20397 9.20397C8.93438 9.47355 8.56875 9.625 8.1875 9.625H3.875V15.375H8.1875C8.56875 15.375 8.93438 15.5265 9.20397 15.796C9.47355 16.0656 9.625 16.4313 9.625 16.8125V21.125H15.375V16.8125C15.375 16.4313 15.5265 16.0656 15.796 15.796C16.0656 15.5265 16.4313 15.375 16.8125 15.375H21.125V9.625H16.8125C16.4313 9.625 16.0656 9.47355 15.796 9.20397C15.5265 8.93438 15.375 8.56875 15.375 8.1875V3.875Z" fill="#314A4F"/>
</svg>
