<svg width="23" height="23" viewBox="0 0 23 23" fill="none" xmlns="http://www.w3.org/2000/svg">
<g clip-path="url(#clip0_936_270)">
<path fill-rule="evenodd" clip-rule="evenodd" d="M10.0621 1.91699C8.7632 1.9171 7.48313 2.22784 6.32871 2.82328C5.1743 3.41872 4.17901 4.2816 3.4259 5.33992C2.67279 6.39825 2.18368 7.62132 1.99939 8.90712C1.81511 10.1929 1.94098 11.5041 2.3665 12.7314C2.79203 13.9586 3.50488 15.0663 4.44557 15.9621C5.38626 16.8578 6.52752 17.5156 7.77413 17.8805C9.02073 18.2455 10.3365 18.307 11.6118 18.06C12.887 17.813 14.0847 17.2647 15.1049 16.4607L18.6047 19.9605C18.7855 20.1351 19.0275 20.2317 19.2788 20.2295C19.5301 20.2273 19.7704 20.1265 19.9481 19.9488C20.1258 19.7711 20.2266 19.5308 20.2288 19.2795C20.231 19.0282 20.1344 18.7862 19.9598 18.6054L16.46 15.1056C17.4068 13.9044 17.9963 12.461 18.1611 10.9404C18.3259 9.41983 18.0592 7.8836 17.3917 6.5075C16.7241 5.1314 15.6826 3.97104 14.3864 3.15921C13.0902 2.34739 11.5916 1.91689 10.0621 1.91699ZM3.83297 10.0628C3.83297 8.41075 4.48925 6.82633 5.65745 5.65814C6.82564 4.48994 8.41006 3.83366 10.0621 3.83366C11.7142 3.83366 13.2986 4.48994 14.4668 5.65814C15.635 6.82633 16.2913 8.41075 16.2913 10.0628C16.2913 11.7149 15.635 13.2993 14.4668 14.4675C13.2986 15.6357 11.7142 16.292 10.0621 16.292C8.41006 16.292 6.82564 15.6357 5.65745 14.4675C4.48925 13.2993 3.83297 11.7149 3.83297 10.0628Z" fill="#1F2F33"/>
</g>
<defs>
<clipPath id="clip0_936_270">
<rect width="23" height="23" fill="white"/>
</clipPath>
</defs>
</svg>
